# xmcd
#
# Track frame offsets: 
#        150
#        16075
#        31200
#        46622
#        61295
#        73972
#        87957
#        108145
#        127647
#        142272
#        157880
#
# Disc length: 2279 seconds
#
# Revision: 5
# Processed by: cddbd v1.5.2PL0 Copyright (c) Steve Scherf et al.
# Submitted via: ExactAudioCopyFreeDBPlugin 1.0
#
DISCID=8208e50b
DTITLE=Various Artist - A Nashville Tribute To Jim Croce
DYEAR=1997
DGENRE=Country
TTITLE0=Sammy Kershaw - I Got A Name
TTITLE1=Charlie Daniels - Box #10
TTITLE2=Ronna Reeves - New York's Not My Home
TTITLE3=Larry Stewart - One Less Set Of Footsteps
TTITLE4=Crystal Bernard - Photographs And Memories
TTITLE5=Mark Collie - Rapid Roy (The Stock Car Boy)
TTITLE6=Rodney Crowell - Operator (That's Not The Way It Feels)
TTITLE7=Kim Carnes - Bad, Bad Leroy Brown
TTITLE8=Lane Brody - I'll Have To Say I Love You In A Song
TTITLE9=Charlie Major - You Don't Mess Around With Jim
TTITLE10=Michael English - Time In A Bottle
EXTD=
EXTT0=Performed By Sammy Kershaw
EXTT1=Performed By Charlie Daniels
EXTT2=Performed By Ronna Reeves
EXTT3=Performed By Larry Stewart
EXTT4=Performed By Crystal Bernard
EXTT5=Performed By Mark Collie
EXTT6=Performed By Rodney Crowell
EXTT7=Performed By Kim Carnes
EXTT8=Performed By Lane Brody
EXTT9=Performed By Charlie Major
EXTT10=Performed By Micheal English
PLAYORDER=
